<mxfile host="app.diagrams.net" agent="Mozilla/5.0 (Windows NT 10.0; Win64; x64) AppleWebKit/537.36 (KHTML, like Gecko) Chrome/139.0.0.0 Safari/537.36" version="28.0.9">
  <diagram name="Page-1" id="d66fe2ae-3e9f-cf2f-6d29-e24063ad5d60">
    <mxGraphModel dx="1023" dy="1142" grid="1" gridSize="10" guides="1" tooltips="1" connect="1" arrows="1" fold="1" page="1" pageScale="1" pageWidth="1100" pageHeight="850" background="none" math="0" shadow="0">
      <root>
        <mxCell id="0" />
        <mxCell id="1" parent="0" />
        <mxCell id="6cyiUO6TO5d5zeEeVipJ-65" value="&lt;div&gt;Office 1&lt;/div&gt;" style="verticalLabelPosition=bottom;verticalAlign=top;html=1;shape=mxgraph.basic.diag_round_rect;dx=6;whiteSpace=wrap;fontColor=#0066CC;" parent="1" vertex="1">
          <mxGeometry x="20" y="90" width="420.33" height="440" as="geometry" />
        </mxCell>
        <mxCell id="6cyiUO6TO5d5zeEeVipJ-62" value="&lt;div&gt;Office 2&lt;/div&gt;" style="verticalLabelPosition=bottom;verticalAlign=top;html=1;shape=mxgraph.basic.diag_round_rect;dx=6;whiteSpace=wrap;fontColor=#0066CC;" parent="1" vertex="1">
          <mxGeometry x="461" y="148" width="250" height="300" as="geometry" />
        </mxCell>
        <mxCell id="6cyiUO6TO5d5zeEeVipJ-57" value="Mobile Devices" style="verticalLabelPosition=bottom;verticalAlign=top;html=1;shape=mxgraph.basic.diag_snip_rect;dx=6;whiteSpace=wrap;fontColor=#0066CC;" parent="1" vertex="1">
          <mxGeometry x="639" y="519" width="400" height="261" as="geometry" />
        </mxCell>
        <mxCell id="6cyiUO6TO5d5zeEeVipJ-49" value="Kitchen" style="verticalLabelPosition=bottom;verticalAlign=top;html=1;shape=mxgraph.basic.diag_snip_rect;dx=6;whiteSpace=wrap;fontColor=#0066CC;" parent="1" vertex="1">
          <mxGeometry x="730" y="338" width="210" height="110" as="geometry" />
        </mxCell>
        <mxCell id="6cyiUO6TO5d5zeEeVipJ-37" value="Living Room" style="verticalLabelPosition=bottom;verticalAlign=top;html=1;shape=mxgraph.basic.diag_snip_rect;dx=6;whiteSpace=wrap;fontColor=#0066CC;" parent="1" vertex="1">
          <mxGeometry x="225.5" y="560" width="370" height="260" as="geometry" />
        </mxCell>
        <mxCell id="6cyiUO6TO5d5zeEeVipJ-36" value="Garage" style="verticalLabelPosition=bottom;verticalAlign=top;html=1;shape=mxgraph.basic.diag_snip_rect;dx=6;whiteSpace=wrap;fontColor=#0066CC;" parent="1" vertex="1">
          <mxGeometry x="730" y="148" width="350" height="130" as="geometry" />
        </mxCell>
        <mxCell id="5fc5e51f7ca293a3-270" style="edgeStyle=none;html=1;labelBackgroundColor=none;endArrow=none;strokeWidth=2;fontFamily=Verdana;fontSize=28;fontColor=#0066CC;rounded=0;strokeColor=#6881B3;exitX=0.496;exitY=0.519;exitDx=0;exitDy=0;exitPerimeter=0;" parent="1" source="hz1rIqiizbCjg5VNgGrb-2" target="5fc5e51f7ca293a3-278" edge="1">
          <mxGeometry relative="1" as="geometry" />
        </mxCell>
        <mxCell id="5fc5e51f7ca293a3-273" style="edgeStyle=none;html=1;labelBackgroundColor=none;endArrow=none;strokeWidth=2;fontFamily=Verdana;fontSize=28;fontColor=#0066CC;rounded=0;strokeColor=#6881B3;" parent="1" source="hz1rIqiizbCjg5VNgGrb-2" target="hz1rIqiizbCjg5VNgGrb-1" edge="1">
          <mxGeometry relative="1" as="geometry">
            <mxPoint x="249" y="307.75" as="targetPoint" />
          </mxGeometry>
        </mxCell>
        <mxCell id="5fc5e51f7ca293a3-274" style="edgeStyle=none;html=1;labelBackgroundColor=none;endArrow=none;strokeWidth=2;fontFamily=Verdana;fontSize=28;fontColor=#0066CC;rounded=0;strokeColor=#6881B3;entryX=0;entryY=0.5;entryDx=0;entryDy=0;entryPerimeter=0;" parent="1" source="5fc5e51f7ca293a3-277" target="5fc5e51f7ca293a3-294" edge="1">
          <mxGeometry relative="1" as="geometry">
            <mxPoint x="560.5" y="219.68786982248525" as="targetPoint" />
          </mxGeometry>
        </mxCell>
        <mxCell id="5fc5e51f7ca293a3-275" style="edgeStyle=none;html=1;labelBackgroundColor=none;endArrow=none;strokeWidth=2;fontFamily=Verdana;fontSize=28;fontColor=#0066CC;rounded=0;strokeColor=#6881B3;exitX=0.508;exitY=0.519;exitDx=0;exitDy=0;exitPerimeter=0;" parent="1" source="hz1rIqiizbCjg5VNgGrb-2" target="5fc5e51f7ca293a3-281" edge="1">
          <mxGeometry relative="1" as="geometry" />
        </mxCell>
        <mxCell id="hz1rIqiizbCjg5VNgGrb-7" value="" style="edgeStyle=orthogonalEdgeStyle;rounded=0;orthogonalLoop=1;jettySize=auto;html=1;strokeWidth=2;strokeColor=#6881B3;endArrow=none;endFill=0;" parent="1" source="5fc5e51f7ca293a3-277" target="hz1rIqiizbCjg5VNgGrb-2" edge="1">
          <mxGeometry relative="1" as="geometry" />
        </mxCell>
        <mxCell id="5fc5e51f7ca293a3-277" value="switch" style="fontColor=#0066CC;verticalAlign=top;verticalLabelPosition=bottom;labelPosition=center;align=center;html=1;fillColor=#CCCCCC;strokeColor=#6881B3;gradientColor=none;gradientDirection=north;strokeWidth=2;shape=mxgraph.networks.switch;rounded=1;shadow=0;comic=0;labelBackgroundColor=#ffffff;" parent="1" vertex="1">
          <mxGeometry x="188" y="180" width="100" height="30" as="geometry" />
        </mxCell>
        <mxCell id="5fc5e51f7ca293a3-278" value="Old Desktop-1" style="fontColor=#0066CC;verticalAlign=top;verticalLabelPosition=bottom;labelPosition=center;align=center;html=1;fillColor=#CCCCCC;strokeColor=#6881B3;gradientColor=none;gradientDirection=north;strokeWidth=2;shape=mxgraph.networks.pc;rounded=1;shadow=0;comic=0;labelBackgroundColor=#ffffff;" parent="1" vertex="1">
          <mxGeometry x="188" y="425" width="100" height="70" as="geometry" />
        </mxCell>
        <mxCell id="5fc5e51f7ca293a3-280" value="MacOS" style="fontColor=#0066CC;verticalAlign=top;verticalLabelPosition=bottom;labelPosition=center;align=center;html=1;fillColor=#CCCCCC;strokeColor=#6881B3;gradientColor=none;gradientDirection=north;strokeWidth=2;shape=mxgraph.networks.pc;rounded=1;shadow=0;comic=0;labelBackgroundColor=#ffffff;" parent="1" vertex="1">
          <mxGeometry x="51.5" y="330" width="100" height="70" as="geometry" />
        </mxCell>
        <mxCell id="5fc5e51f7ca293a3-281" value="Old Desktop-2" style="fontColor=#0066CC;verticalAlign=top;verticalLabelPosition=bottom;labelPosition=center;align=center;html=1;fillColor=#CCCCCC;strokeColor=#6881B3;gradientColor=none;gradientDirection=north;strokeWidth=2;shape=mxgraph.networks.pc;rounded=1;shadow=0;comic=0;labelBackgroundColor=#ffffff;" parent="1" vertex="1">
          <mxGeometry x="320.34" y="425" width="100" height="70" as="geometry" />
        </mxCell>
        <mxCell id="5fc5e51f7ca293a3-285" value="Printer" style="fontColor=#0066CC;verticalAlign=top;verticalLabelPosition=bottom;labelPosition=center;align=center;html=1;fillColor=#CCCCCC;strokeColor=#6881B3;gradientColor=none;gradientDirection=north;strokeWidth=2;shape=mxgraph.networks.printer;rounded=1;shadow=0;comic=0;labelBackgroundColor=#ffffff;" parent="1" vertex="1">
          <mxGeometry x="320.34000000000003" y="100" width="75.32" height="70" as="geometry" />
        </mxCell>
        <mxCell id="5fc5e51f7ca293a3-287" style="edgeStyle=none;html=1;labelBackgroundColor=none;endArrow=none;strokeWidth=2;fontFamily=Verdana;fontSize=28;fontColor=#0066CC;rounded=0;strokeColor=#6881B3;" parent="1" source="5fc5e51f7ca293a3-294" target="5fc5e51f7ca293a3-295" edge="1">
          <mxGeometry relative="1" as="geometry" />
        </mxCell>
        <mxCell id="5fc5e51f7ca293a3-294" value="switch" style="fontColor=#0066CC;verticalAlign=top;verticalLabelPosition=bottom;labelPosition=center;align=center;html=1;fillColor=#CCCCCC;strokeColor=#6881B3;gradientColor=none;gradientDirection=north;strokeWidth=2;shape=mxgraph.networks.switch;rounded=1;shadow=0;comic=0;labelBackgroundColor=#ffffff;" parent="1" vertex="1">
          <mxGeometry x="480" y="180" width="100" height="30" as="geometry" />
        </mxCell>
        <mxCell id="5fc5e51f7ca293a3-295" value="Gaming Desktop 2" style="fontColor=#0066CC;verticalAlign=top;verticalLabelPosition=bottom;labelPosition=center;align=center;html=1;fillColor=#CCCCCC;strokeColor=#6881B3;gradientColor=none;gradientDirection=north;strokeWidth=2;shape=mxgraph.networks.pc;rounded=1;shadow=0;comic=0;labelBackgroundColor=#ffffff;" parent="1" vertex="1">
          <mxGeometry x="601.4999999999999" y="160.25" width="100" height="70" as="geometry" />
        </mxCell>
        <mxCell id="snzYmwEWvy-G4MxadNuX-15" value="" style="rounded=0;orthogonalLoop=1;jettySize=auto;html=1;entryX=0.5;entryY=0;entryDx=0;entryDy=0;entryPerimeter=0;strokeWidth=2;strokeColor=#6881B3;endArrow=none;startFill=0;fontColor=#0066CC;" parent="1" source="5fc5e51f7ca293a3-198" target="5fc5e51f7ca293a3-277" edge="1">
          <mxGeometry relative="1" as="geometry" />
        </mxCell>
        <mxCell id="5fc5e51f7ca293a3-198" value="router" style="fontColor=#0066CC;verticalAlign=top;verticalLabelPosition=bottom;labelPosition=center;align=center;html=1;fillColor=#CCCCCC;strokeColor=#6881B3;gradientColor=none;gradientDirection=north;strokeWidth=2;shape=mxgraph.networks.router;rounded=1;shadow=0;comic=0;labelBackgroundColor=#ffffff;" parent="1" vertex="1">
          <mxGeometry x="187.16" y="30" width="100" height="30" as="geometry" />
        </mxCell>
        <mxCell id="6cyiUO6TO5d5zeEeVipJ-24" value="iphone-1" style="fontColor=#0066CC;verticalAlign=top;verticalLabelPosition=bottom;labelPosition=center;align=center;html=1;outlineConnect=0;fillColor=#CCCCCC;strokeColor=#6881B3;gradientColor=none;gradientDirection=north;strokeWidth=2;shape=mxgraph.networks.mobile;" parent="1" vertex="1">
          <mxGeometry x="659" y="536.5" width="50" height="100" as="geometry" />
        </mxCell>
        <mxCell id="6cyiUO6TO5d5zeEeVipJ-25" value="iphone-2&lt;div&gt;&lt;br&gt;&lt;/div&gt;" style="fontColor=#0066CC;verticalAlign=top;verticalLabelPosition=bottom;labelPosition=center;align=center;html=1;outlineConnect=0;fillColor=#CCCCCC;strokeColor=#6881B3;gradientColor=none;gradientDirection=north;strokeWidth=2;shape=mxgraph.networks.mobile;" parent="1" vertex="1">
          <mxGeometry x="762" y="536.5" width="50" height="100" as="geometry" />
        </mxCell>
        <mxCell id="6cyiUO6TO5d5zeEeVipJ-26" value="android&lt;div&gt;&lt;br&gt;&lt;/div&gt;" style="fontColor=#0066CC;verticalAlign=top;verticalLabelPosition=bottom;labelPosition=center;align=center;html=1;outlineConnect=0;fillColor=#CCCCCC;strokeColor=#6881B3;gradientColor=none;gradientDirection=north;strokeWidth=2;shape=mxgraph.networks.mobile;" parent="1" vertex="1">
          <mxGeometry x="866" y="536.5" width="50" height="100" as="geometry" />
        </mxCell>
        <mxCell id="6cyiUO6TO5d5zeEeVipJ-27" value="e-reader" style="fontColor=#0066CC;verticalAlign=top;verticalLabelPosition=bottom;labelPosition=center;align=center;html=1;outlineConnect=0;fillColor=#CCCCCC;strokeColor=#6881B3;gradientColor=none;gradientDirection=north;strokeWidth=2;shape=mxgraph.networks.mobile;" parent="1" vertex="1">
          <mxGeometry x="969.0899999999999" y="536.5" width="50" height="100" as="geometry" />
        </mxCell>
        <mxCell id="6cyiUO6TO5d5zeEeVipJ-28" value="ipad-1" style="fontColor=#0066CC;verticalAlign=top;verticalLabelPosition=bottom;labelPosition=center;align=center;html=1;outlineConnect=0;fillColor=#CCCCCC;strokeColor=#6881B3;gradientColor=none;gradientDirection=north;strokeWidth=2;shape=mxgraph.networks.tablet;" parent="1" vertex="1">
          <mxGeometry x="659" y="678" width="100" height="70" as="geometry" />
        </mxCell>
        <mxCell id="6cyiUO6TO5d5zeEeVipJ-29" value="ipad-2" style="fontColor=#0066CC;verticalAlign=top;verticalLabelPosition=bottom;labelPosition=center;align=center;html=1;outlineConnect=0;fillColor=#CCCCCC;strokeColor=#6881B3;gradientColor=none;gradientDirection=north;strokeWidth=2;shape=mxgraph.networks.tablet;" parent="1" vertex="1">
          <mxGeometry x="790" y="676.5" width="100" height="70" as="geometry" />
        </mxCell>
        <mxCell id="6cyiUO6TO5d5zeEeVipJ-30" value="TV" style="sketch=0;pointerEvents=1;shadow=0;dashed=0;html=1;strokeColor=#6881B3;fillColor=#CCCCCC;labelPosition=center;verticalLabelPosition=bottom;verticalAlign=top;outlineConnect=0;align=center;shape=mxgraph.office.devices.tv;fontColor=#0066CC;strokeWidth=2;" parent="1" vertex="1">
          <mxGeometry x="249.65999999999997" y="589" width="92.33" height="70.42" as="geometry" />
        </mxCell>
        <mxCell id="6cyiUO6TO5d5zeEeVipJ-34" value="EV Car" style="shape=mxgraph.signs.transportation.car_4;html=1;pointerEvents=1;fillColor=#CCCCCC;strokeColor=#6881B3;verticalLabelPosition=bottom;verticalAlign=top;align=center;fontColor=#0066CC;strokeWidth=2;" parent="1" vertex="1">
          <mxGeometry x="969.9999999999998" y="160.25" width="98" height="86" as="geometry" />
        </mxCell>
        <mxCell id="6cyiUO6TO5d5zeEeVipJ-38" value="Back Left" style="fillColor=#ffffff;strokeColor=none;shadow=0;strokeWidth=1;rounded=1;absoluteArcSize=1;arcSize=2;labelPosition=center;verticalLabelPosition=middle;align=center;verticalAlign=bottom;spacingLeft=0;fontColor=#0066CC;fontSize=12;whiteSpace=wrap;spacingBottom=2;html=1;" parent="1" vertex="1">
          <mxGeometry x="334.5" y="710" width="70" height="85" as="geometry" />
        </mxCell>
        <mxCell id="6cyiUO6TO5d5zeEeVipJ-39" value="" style="sketch=0;dashed=0;connectable=0;html=1;fillColor=#757575;strokeColor=none;shape=mxgraph.gcp2.speaker;part=1;fontColor=#0066CC;" parent="6cyiUO6TO5d5zeEeVipJ-38" vertex="1">
          <mxGeometry x="0.5" width="35" height="50" relative="1" as="geometry">
            <mxPoint x="-17.5" y="10" as="offset" />
          </mxGeometry>
        </mxCell>
        <mxCell id="6cyiUO6TO5d5zeEeVipJ-40" value="Soundbar" style="fillColor=#ffffff;strokeColor=none;shadow=0;strokeWidth=1;rounded=1;absoluteArcSize=1;arcSize=2;labelPosition=center;verticalLabelPosition=middle;align=center;verticalAlign=bottom;spacingLeft=0;fontColor=#0066CC;fontSize=12;whiteSpace=wrap;spacingBottom=2;html=1;" parent="1" vertex="1">
          <mxGeometry x="247.82999999999993" y="710" width="70" height="85" as="geometry" />
        </mxCell>
        <mxCell id="6cyiUO6TO5d5zeEeVipJ-41" value="" style="sketch=0;dashed=0;connectable=0;html=1;fillColor=#757575;strokeColor=none;shape=mxgraph.gcp2.speaker;part=1;fontColor=#0066CC;" parent="6cyiUO6TO5d5zeEeVipJ-40" vertex="1">
          <mxGeometry x="0.5" width="35" height="50" relative="1" as="geometry">
            <mxPoint x="-17.5" y="10" as="offset" />
          </mxGeometry>
        </mxCell>
        <mxCell id="6cyiUO6TO5d5zeEeVipJ-42" value="Back Right" style="fillColor=#ffffff;strokeColor=none;shadow=0;strokeWidth=1;rounded=1;absoluteArcSize=1;arcSize=2;labelPosition=center;verticalLabelPosition=middle;align=center;verticalAlign=bottom;spacingLeft=0;fontColor=#0066CC;fontSize=12;whiteSpace=wrap;spacingBottom=2;html=1;" parent="1" vertex="1">
          <mxGeometry x="421.5" y="710" width="70" height="85" as="geometry" />
        </mxCell>
        <mxCell id="6cyiUO6TO5d5zeEeVipJ-43" value="" style="sketch=0;dashed=0;connectable=0;html=1;fillColor=#757575;strokeColor=none;shape=mxgraph.gcp2.speaker;part=1;fontColor=#0066CC;" parent="6cyiUO6TO5d5zeEeVipJ-42" vertex="1">
          <mxGeometry x="0.5" width="35" height="50" relative="1" as="geometry">
            <mxPoint x="-17.5" y="10" as="offset" />
          </mxGeometry>
        </mxCell>
        <mxCell id="6cyiUO6TO5d5zeEeVipJ-44" value="Sub woofer" style="fillColor=#ffffff;strokeColor=none;shadow=0;strokeWidth=1;rounded=1;absoluteArcSize=1;arcSize=2;labelPosition=center;verticalLabelPosition=middle;align=center;verticalAlign=bottom;spacingLeft=0;fontColor=#0066CC;fontSize=12;whiteSpace=wrap;spacingBottom=2;html=1;" parent="1" vertex="1">
          <mxGeometry x="507.8299999999999" y="710" width="70" height="85" as="geometry" />
        </mxCell>
        <mxCell id="6cyiUO6TO5d5zeEeVipJ-45" value="" style="sketch=0;dashed=0;connectable=0;html=1;fillColor=#757575;strokeColor=none;shape=mxgraph.gcp2.speaker;part=1;fontColor=#0066CC;" parent="6cyiUO6TO5d5zeEeVipJ-44" vertex="1">
          <mxGeometry x="0.5" width="35" height="50" relative="1" as="geometry">
            <mxPoint x="-17.5" y="10" as="offset" />
          </mxGeometry>
        </mxCell>
        <mxCell id="6cyiUO6TO5d5zeEeVipJ-46" value="Alternative Laptop" style="fontColor=#0066CC;verticalAlign=top;verticalLabelPosition=bottom;labelPosition=center;align=center;html=1;outlineConnect=0;fillColor=#CCCCCC;strokeColor=#6881B3;gradientColor=none;gradientDirection=north;strokeWidth=2;shape=mxgraph.networks.laptop;" parent="1" vertex="1">
          <mxGeometry x="480.0000000000001" y="355.75" width="100" height="55" as="geometry" />
        </mxCell>
        <mxCell id="6cyiUO6TO5d5zeEeVipJ-50" value="Smart Display-2" style="fontColor=#0066CC;verticalAlign=top;verticalLabelPosition=bottom;labelPosition=center;align=center;html=1;outlineConnect=0;fillColor=#CCCCCC;strokeColor=#6881B3;gradientColor=none;gradientDirection=north;strokeWidth=2;shape=mxgraph.networks.monitor;" parent="1" vertex="1">
          <mxGeometry x="749.6699999999998" y="350.25" width="80" height="65" as="geometry" />
        </mxCell>
        <mxCell id="6cyiUO6TO5d5zeEeVipJ-51" value="Stove" style="shape=mxgraph.pid.driers.drying_oven,_drying_chamber,_shelf_dryer;html=1;pointerEvents=1;align=center;verticalLabelPosition=bottom;verticalAlign=top;dashed=0;fontColor=#0066CC;strokeWidth=2;strokeColor=#6881B3;fillColor=#CCCCCC;" parent="1" vertex="1">
          <mxGeometry x="850" y="348" width="74.68" height="67.75" as="geometry" />
        </mxCell>
        <mxCell id="6cyiUO6TO5d5zeEeVipJ-56" value="Smart Vacuum" style="verticalLabelPosition=bottom;verticalAlign=top;html=1;shape=mxgraph.basic.donut;dx=25;fontColor=#0066CC;strokeWidth=2;strokeColor=#6881B3;fillColor=#CCCCCC;" parent="1" vertex="1">
          <mxGeometry x="501.5" y="583" width="71" height="71" as="geometry" />
        </mxCell>
        <mxCell id="6cyiUO6TO5d5zeEeVipJ-58" value="Steam Deck" style="shape=mxgraph.networks2.icon;aspect=fixed;fillColor=#CCCCCC;strokeColor=#6881B3;gradientColor=none;network2IconShadow=1;network2bgFillColor=none;network2Icon=mxgraph.networks2.gamepad;network2IconXOffset=0.00005;network2IconYOffset=0.00163;network2IconW=1.0021;network2IconH=0.7358;labelPosition=center;verticalLabelPosition=bottom;align=center;verticalAlign=top;fontColor=#0066CC;" parent="1" vertex="1">
          <mxGeometry x="923.99" y="676.5" width="95.1" height="69.83" as="geometry" />
        </mxCell>
        <mxCell id="6cyiUO6TO5d5zeEeVipJ-59" value="Guest Bathroom" style="verticalLabelPosition=bottom;verticalAlign=top;html=1;shape=mxgraph.basic.diag_round_rect;dx=6;whiteSpace=wrap;fontColor=#0066CC;" parent="1" vertex="1">
          <mxGeometry x="970" y="338.25" width="110" height="109.75" as="geometry" />
        </mxCell>
        <mxCell id="6cyiUO6TO5d5zeEeVipJ-60" value="Smart Speaker" style="pointerEvents=1;verticalLabelPosition=bottom;shadow=0;dashed=0;align=center;html=1;verticalAlign=top;shape=mxgraph.electrical.electro-mechanical.loudspeaker;fontColor=#0066CC;strokeWidth=2;strokeColor=#6881B3;fillColor=#CCCCCC;" parent="1" vertex="1">
          <mxGeometry x="1012.5" y="358.25" width="25" height="50" as="geometry" />
        </mxCell>
        <mxCell id="6cyiUO6TO5d5zeEeVipJ-63" value="Work Laptop" style="fontColor=#0066CC;verticalAlign=top;verticalLabelPosition=bottom;labelPosition=center;align=center;html=1;outlineConnect=0;fillColor=#CCCCCC;strokeColor=#6881B3;gradientColor=none;gradientDirection=north;strokeWidth=2;shape=mxgraph.networks.laptop;" parent="1" vertex="1">
          <mxGeometry x="480" y="260" width="100" height="55" as="geometry" />
        </mxCell>
        <mxCell id="6cyiUO6TO5d5zeEeVipJ-64" value="Smart Display-1" style="fontColor=#0066CC;verticalAlign=top;verticalLabelPosition=bottom;labelPosition=center;align=center;html=1;outlineConnect=0;fillColor=#CCCCCC;strokeColor=#6881B3;gradientColor=none;gradientDirection=north;strokeWidth=2;shape=mxgraph.networks.monitor;" parent="1" vertex="1">
          <mxGeometry x="611.4999999999999" y="345" width="80" height="65" as="geometry" />
        </mxCell>
        <mxCell id="6cyiUO6TO5d5zeEeVipJ-66" value="&lt;div&gt;Bedroom&lt;/div&gt;" style="verticalLabelPosition=bottom;verticalAlign=top;html=1;shape=mxgraph.basic.diag_round_rect;dx=6;whiteSpace=wrap;fontColor=#0066CC;" parent="1" vertex="1">
          <mxGeometry x="62" y="560" width="120" height="260" as="geometry" />
        </mxCell>
        <mxCell id="6cyiUO6TO5d5zeEeVipJ-67" value="Smart Display-3" style="fontColor=#0066CC;verticalAlign=top;verticalLabelPosition=bottom;labelPosition=center;align=center;html=1;outlineConnect=0;fillColor=#CCCCCC;strokeColor=#6881B3;gradientColor=none;gradientDirection=north;strokeWidth=2;shape=mxgraph.networks.monitor;" parent="1" vertex="1">
          <mxGeometry x="81.5" y="709" width="80" height="65" as="geometry" />
        </mxCell>
        <mxCell id="6cyiUO6TO5d5zeEeVipJ-71" value="Gaming Laptop&lt;br&gt;+&lt;br&gt;Ubuntu VM" style="fontColor=#0066CC;verticalAlign=top;verticalLabelPosition=bottom;labelPosition=center;align=center;html=1;outlineConnect=0;fillColor=#CCCCCC;strokeColor=#6881B3;gradientColor=none;gradientDirection=north;strokeWidth=2;shape=mxgraph.networks.laptop;" parent="1" vertex="1">
          <mxGeometry x="51.5" y="217.5" width="100" height="55" as="geometry" />
        </mxCell>
        <mxCell id="6cyiUO6TO5d5zeEeVipJ-74" value="Smart Light Hub" style="fontColor=#0066CC;verticalAlign=top;verticalLabelPosition=bottom;labelPosition=center;align=center;html=1;outlineConnect=0;fillColor=#CCCCCC;strokeColor=#6881B3;gradientColor=none;gradientDirection=north;strokeWidth=2;shape=mxgraph.networks.hub;" parent="1" vertex="1">
          <mxGeometry x="320.3399999999999" y="242.5" width="100" height="30" as="geometry" />
        </mxCell>
        <mxCell id="6cyiUO6TO5d5zeEeVipJ-76" style="edgeStyle=none;html=1;labelBackgroundColor=none;endArrow=none;strokeWidth=2;fontFamily=Verdana;fontSize=28;fontColor=#0066CC;rounded=0;strokeColor=#6881B3;entryX=0.05;entryY=0.05;entryDx=0;entryDy=0;entryPerimeter=0;" parent="1" source="5fc5e51f7ca293a3-277" target="6cyiUO6TO5d5zeEeVipJ-74" edge="1">
          <mxGeometry relative="1" as="geometry">
            <mxPoint x="349" y="288" as="sourcePoint" />
            <mxPoint x="349" y="345" as="targetPoint" />
          </mxGeometry>
        </mxCell>
        <mxCell id="snzYmwEWvy-G4MxadNuX-3" value="Washer" style="verticalLabelPosition=bottom;verticalAlign=top;html=1;shape=mxgraph.basic.rounded_frame;dx=10;whiteSpace=wrap;fontColor=#0066CC;strokeWidth=2;strokeColor=#6881B3;fillColor=#CCCCCC;" parent="1" vertex="1">
          <mxGeometry x="743" y="158" width="100" height="90" as="geometry" />
        </mxCell>
        <mxCell id="snzYmwEWvy-G4MxadNuX-4" value="Dryer" style="verticalLabelPosition=bottom;verticalAlign=top;html=1;shape=mxgraph.basic.rounded_frame;dx=10;whiteSpace=wrap;fontColor=#0066CC;strokeWidth=2;strokeColor=#6881B3;fillColor=#CCCCCC;" parent="1" vertex="1">
          <mxGeometry x="856" y="158" width="100" height="90" as="geometry" />
        </mxCell>
        <mxCell id="snzYmwEWvy-G4MxadNuX-11" value="Air Purifier-1" style="verticalLabelPosition=bottom;outlineConnect=0;align=center;dashed=0;html=1;verticalAlign=top;shape=mxgraph.pid.misc.air_filter;fontColor=#0066CC;strokeColor=#6881B3;strokeWidth=2;fillColor=#CCCCCC;" parent="1" vertex="1">
          <mxGeometry x="101.5" y="588" width="40" height="65" as="geometry" />
        </mxCell>
        <mxCell id="snzYmwEWvy-G4MxadNuX-12" value="Air Purifier-2" style="verticalLabelPosition=bottom;outlineConnect=0;align=center;dashed=0;html=1;verticalAlign=top;shape=mxgraph.pid.misc.air_filter;fontColor=#0066CC;strokeWidth=2;strokeColor=#6881B3;fillColor=#CCCCCC;" parent="1" vertex="1">
          <mxGeometry x="396.5" y="589" width="40" height="65" as="geometry" />
        </mxCell>
        <mxCell id="snzYmwEWvy-G4MxadNuX-16" value="2025-08-08 Generic Home Network Map" style="text;strokeColor=none;align=center;fillColor=none;html=1;verticalAlign=middle;whiteSpace=wrap;rounded=0;fontStyle=1;fontSize=15;fontColor=#0066CC;" parent="1" vertex="1">
          <mxGeometry x="56" y="20" width="989" height="30" as="geometry" />
        </mxCell>
        <mxCell id="hz1rIqiizbCjg5VNgGrb-1" value="Main Laptop" style="fontColor=#0066CC;verticalAlign=top;verticalLabelPosition=bottom;labelPosition=center;align=center;html=1;outlineConnect=0;fillColor=#CCCCCC;strokeColor=#6881B3;gradientColor=none;gradientDirection=north;strokeWidth=2;shape=mxgraph.networks.laptop;" parent="1" vertex="1">
          <mxGeometry x="320.34" y="337.5" width="100" height="55" as="geometry" />
        </mxCell>
        <mxCell id="hz1rIqiizbCjg5VNgGrb-2" value="switch" style="fontColor=#0066CC;verticalAlign=top;verticalLabelPosition=bottom;labelPosition=center;align=center;html=1;fillColor=#CCCCCC;strokeColor=#6881B3;gradientColor=none;gradientDirection=north;strokeWidth=2;shape=mxgraph.networks.switch;rounded=1;shadow=0;comic=0;labelBackgroundColor=#ffffff;" parent="1" vertex="1">
          <mxGeometry x="188" y="350" width="100" height="30" as="geometry" />
        </mxCell>
        <mxCell id="hz1rIqiizbCjg5VNgGrb-4" style="edgeStyle=none;html=1;labelBackgroundColor=none;endArrow=none;strokeWidth=2;fontFamily=Verdana;fontSize=28;fontColor=#0066CC;rounded=0;strokeColor=#6881B3;" parent="1" source="6cyiUO6TO5d5zeEeVipJ-71" target="5fc5e51f7ca293a3-277" edge="1">
          <mxGeometry relative="1" as="geometry">
            <mxPoint x="272" y="280" as="sourcePoint" />
            <mxPoint x="218" y="220" as="targetPoint" />
          </mxGeometry>
        </mxCell>
        <mxCell id="hz1rIqiizbCjg5VNgGrb-8" style="edgeStyle=none;html=1;labelBackgroundColor=none;endArrow=none;strokeWidth=2;fontFamily=Verdana;fontSize=28;fontColor=#0066CC;rounded=0;strokeColor=#6881B3;" parent="1" source="5fc5e51f7ca293a3-280" target="hz1rIqiizbCjg5VNgGrb-2" edge="1">
          <mxGeometry relative="1" as="geometry">
            <mxPoint x="179.5" y="340.5" as="sourcePoint" />
            <mxPoint x="209.5" y="354.5" as="targetPoint" />
          </mxGeometry>
        </mxCell>
        <mxCell id="LbSNkcYFE1bcH63Dt4xv-1" value="Indoor Bicycle" style="shape=mxgraph.signs.transportation.bicycle_1;html=1;pointerEvents=1;fillColor=#CCCCCC;strokeColor=#6881B3;verticalLabelPosition=bottom;verticalAlign=top;align=center;strokeWidth=2;fontColor=#0066CC;" parent="1" vertex="1">
          <mxGeometry x="48.129999999999995" y="95" width="127.74" height="80" as="geometry" />
        </mxCell>
        <mxCell id="LbSNkcYFE1bcH63Dt4xv-2" value="Gaming Desktop 1" style="fontColor=#0066CC;verticalAlign=top;verticalLabelPosition=bottom;labelPosition=center;align=center;html=1;fillColor=#CCCCCC;strokeColor=#6881B3;gradientColor=none;gradientDirection=north;strokeWidth=2;shape=mxgraph.networks.pc;rounded=1;shadow=0;comic=0;labelBackgroundColor=#ffffff;" parent="1" vertex="1">
          <mxGeometry x="51.5" y="425" width="100" height="70" as="geometry" />
        </mxCell>
        <mxCell id="LbSNkcYFE1bcH63Dt4xv-4" style="edgeStyle=none;html=1;labelBackgroundColor=none;endArrow=none;strokeWidth=2;fontFamily=Verdana;fontSize=28;fontColor=#0066CC;rounded=0;strokeColor=#6881B3;exitX=0.32;exitY=1;exitDx=0;exitDy=0;exitPerimeter=0;" parent="1" source="hz1rIqiizbCjg5VNgGrb-2" target="LbSNkcYFE1bcH63Dt4xv-2" edge="1">
          <mxGeometry relative="1" as="geometry">
            <mxPoint x="13.5" y="345" as="sourcePoint" />
            <mxPoint x="71.5" y="382" as="targetPoint" />
          </mxGeometry>
        </mxCell>
      </root>
    </mxGraphModel>
  </diagram>
</mxfile>
